<?xml version="1.0" encoding="UTF-8" standalone="no"?><!DOCTYPE svg PUBLIC "-//W3C//DTD SVG 1.1//EN" "http://www.w3.org/Graphics/SVG/1.1/DTD/svg11.dtd"><svg width="100%" height="100%" viewBox="0 0 2976 1312" version="1.1" xmlns="http://www.w3.org/2000/svg" xmlns:xlink="http://www.w3.org/1999/xlink" xml:space="preserve" xmlns:serif="http://www.serif.com/" style="fill-rule:evenodd;clip-rule:evenodd;stroke-linejoin:round;stroke-miterlimit:2;"><g><path d="M17.675,1137.979c27.522,102.714 116.154,199.133 232.612,167.928c228.575,-61.247 323.257,-512.241 271.702,-704.65c-14.73,-54.974 -48.167,-142.148 -119.778,-122.96c-66.547,17.831 -113.055,93.09 -138.6,151.103c-72.786,165.254 -102.48,343.771 -122.189,521.938c0.388,1.447 0.104,6.174 1.267,10.514c1.163,4.34 3.772,8.292 7.389,7.323c4.34,-1.163 3.641,-21.133 4.402,-29.865c41.156,-274.62 75.184,-379.097 139.218,-481.535c22.821,-36.351 54.517,-74.304 97.917,-85.933c57.144,-15.312 81.703,30.051 94.301,77.068c47.098,175.771 -30.747,547.829 -213.029,596.671c-105.608,28.297 -171.169,-57.247 -195.784,-149.111c-45.547,-169.985 39.594,-410.65 185.134,-527.175c15.951,-12.802 37.316,-16.976 35.572,-23.486c-1.744,-6.51 -5.943,-7.711 -10.283,-6.548c-3.617,0.969 -26.995,14.986 -30.948,17.596c-180.454,125.104 -304.22,337.355 -238.903,581.121Z"/><path d="M690.198,1087.248c3.101,11.573 10.93,23.431 24.673,19.748c33.997,-9.109 60.348,-159.596 58.41,-166.829c-0.775,-2.893 -1.357,-5.063 -4.25,-4.288c-10.85,2.907 -9.811,64.651 -32.958,70.853c-7.233,1.938 -11.729,-6.16 -13.086,-11.224c-6.977,-26.04 6.762,-73.137 35.477,-223.481c0.865,-2.558 0.478,-4.004 -0.104,-6.174c-2.326,-8.68 -18.097,-6.78 -25.331,-4.842c-15.19,4.07 -19.423,54.822 -25.13,82.71c-15.726,80.191 -50.089,186.307 -78.3,193.866c-9.403,2.52 -15.682,-3.551 -18.007,-12.231c-9.303,-34.72 41.423,-172.356 28.825,-219.373c-3.489,-13.02 -16.523,-21.157 -29.543,-17.668c-26.04,6.977 -46.882,85.438 -49.671,92.387c-7.877,28.47 -16.076,70.206 -13.944,78.162c0.581,2.17 1.551,5.787 5.167,4.818c2.893,-0.775 6.43,-28.082 14.463,-47.291c4.714,-11.342 11.352,-27.075 23.649,-30.37c7.233,-1.938 9.895,5.101 11.833,12.335c6.59,24.594 -36.45,176.45 -25.402,217.681c2.326,8.68 13.629,21.932 25.926,18.637c38.337,-10.272 60.327,-96.018 60.999,-99.299c20.132,-66.641 40.302,-141.82 44.926,-147.711c3.101,11.573 -28.507,162.693 -18.622,199.583Z"/><path d="M936.821,749.045c8.68,-2.326 21.918,-25.255 19.205,-35.382c-0.969,-3.617 -4.444,-5.011 -10.231,-3.461l-38.337,10.272c24.936,-83.434 41.707,-177.084 34.342,-204.571c-6.59,-24.594 -16.433,-26.608 -22.22,-25.057c-26.764,7.171 -35.744,121.217 -56.246,241.451l-31.827,8.528c-10.656,3.631 -18.457,15.024 -14.968,28.044c0.969,3.617 2.855,7.763 5.994,10.798l33.274,-8.916c-4.984,27.695 -11.608,55.054 -18.813,80.242c-11.338,38.701 -47.397,97.98 -46.234,102.32c0.581,2.17 1.886,4.146 4.056,3.565c5.063,-1.357 26.476,-45.858 36.589,-60.197c-1.107,42.161 -24.97,135.386 -19.931,154.193c2.907,10.85 13.488,24.296 26.508,20.807c42.677,-11.435 80.044,-187.356 77.912,-195.313c-0.581,-2.17 -3.333,-3.759 -6.226,-2.983c-6.51,1.744 -13.736,90.511 -43.393,98.458c-10.127,2.713 -13.847,-2.492 -16.173,-11.172c-7.171,-26.764 12.663,-100.302 19.661,-137.84c8.614,-17.038 16.789,-38.611 25.105,-62.547l41.954,-11.241Z"/><path d="M1138.343,936.932c8.334,31.104 27.311,46.951 59.138,38.423c49.91,-13.373 73.489,-101.87 75.891,-110.267c2.544,-10.76 14.785,-60.557 16.605,-71.123c5.541,-5.361 28.542,-52.614 27.185,-57.677c-0.388,-1.447 -2.997,-5.399 -4.444,-5.011c-2.893,0.775 -8.085,16.121 -20.987,37.41c0.478,-4.004 -0.014,-11.625 -2.146,-19.582c-1.551,-5.787 -4.212,-12.826 -9.185,-16.921c10.099,-25.964 18.841,-56.992 11.282,-85.202c-4.458,-16.637 -18.797,-26.75 -36.88,-21.904c-88.247,23.646 -137.004,235.18 -116.459,311.854Zm27.947,-66.409c-14.343,-53.527 10.423,-157.848 73.354,-174.71c10.85,-2.907 26.196,2.284 29.879,16.028c0.969,3.617 2.907,10.85 0.595,13.795l-1.589,2.751c-2.364,-0.142 -4.534,0.44 -6.704,1.021c-26.764,7.171 -46.432,58.182 -36.741,94.349c2.52,9.403 5.659,12.439 18.679,8.95c11.573,-3.101 15.668,-8.075 27.525,-15.903c3.683,13.743 -19.73,79.713 -59.514,90.373c-25.317,6.784 -39.476,-14.231 -45.484,-36.655Z"/><path d="M1334.816,1137.802c36.89,-9.885 60.24,-209.184 63.064,-268.086c0.657,-14.906 0.941,-19.634 11.791,-22.541c10.85,-2.907 9.891,-38.313 7.565,-46.993c-1.357,-5.063 -3.527,-4.482 -18.717,-0.412l-2.219,-121.123c47.266,-127.405 72.224,-393.034 61.758,-432.094c-1.744,-6.51 -2.907,-10.85 -10.141,-8.912c-46.294,12.404 -69.598,289.994 -74.854,452.659c-26.954,49.862 -44.338,74.677 -43.756,76.847c0.388,1.447 7.867,3.319 10.037,2.738c12.179,-21.095 28.168,-42.435 32.65,-45.962c0.557,22.334 -2.81,70.527 -5.495,83.651c0.194,0.723 -11.38,3.824 -37.42,10.802c-0.568,9.455 -0.54,32.706 -4.232,50.752l36.167,-9.691c0.402,13.072 -0.578,41.244 -29.14,157.436c-5.915,15.54 -9.697,39.036 -17.654,41.168c-10.85,2.907 -24.008,52.174 -20.713,64.471c3.876,14.467 30.46,18.198 41.31,15.29Z"/><path d="M1953.448,475.09c-8.628,5.413 -19.814,9.961 -31.529,15.426c9.742,-122.778 17.871,-222.64 32.84,-250.684c10.926,-19.984 32.585,-60.674 28.321,-76.588c-5.427,-20.254 -21.25,-21.441 -39.334,-16.595c-12.297,3.295 -18.173,10.296 -17.966,22.645l-86.035,219.972c0.775,2.893 2.61,3.952 5.503,3.177c16.637,-4.458 40.693,-96.959 69.817,-147.403c-12.795,70.877 -26.517,173.014 -40.253,263.525c-40.985,14.858 -80.574,26.241 -86.361,27.792c1.938,7.233 5.994,10.798 11.833,12.335c2.893,-0.775 34.526,-10.027 72.282,-22.469c-13.58,99.773 -25.831,181.358 -28.002,181.939c-2.17,0.581 -7.479,-1.872 -10.373,-1.097c-16.637,4.458 -22.478,121.539 -17.633,139.622c4.458,16.637 24.583,25.199 41.22,20.741c32.55,-8.722 34.855,-98.496 40.638,-143.46c9.32,-72.272 15.695,-146.856 21.45,-215.071c13.356,-5.129 26.518,-10.982 38.233,-16.447c139.331,-64.468 287.764,-181.768 243.573,-346.689c-31.592,-117.904 -155.415,-114.186 -271.149,-83.176c-196.025,52.525 -376.71,185.444 -334.458,343.132c29.46,109.948 118.518,199.274 217.855,251.735c0.917,0.53 2.558,0.865 3.281,0.671c3.617,-0.969 5.735,-4.638 4.766,-8.254c-0.388,-1.447 -1.499,-2.7 -3.333,-3.759c-81.291,-48.768 -144.267,-110.196 -166.556,-193.38c-51.943,-193.855 122.194,-316.492 291.456,-361.845c88.247,-23.646 165.648,-0.97 189.294,87.277c40.12,149.731 -72.935,242.821 -179.38,296.927Z"/><path d="M2294.177,655.912c3.101,11.573 10.93,23.431 23.95,19.942c34.72,-9.303 49.128,-103.095 56.177,-137.546c4.17,-22.05 6.894,-43.712 4.181,-53.839c-0.388,-1.447 -0.775,-2.893 -2.945,-2.312c-8.77,7.777 -11.968,76.858 -32.221,82.285c-7.233,1.938 -12.013,-1.433 -13.951,-8.666c-5.621,-20.977 31.078,-150.202 18.48,-197.219c-4.264,-15.913 -10.452,-27.435 -27.812,-22.783c-18.083,4.845 -37.212,23.151 -79.47,102.698l15.193,-122.688c27.535,-47.692 79.393,-247.653 65.826,-298.287c-4.264,-15.913 -16.665,-18.793 -23.175,-17.049c-16.637,4.458 -26.788,27.335 -29.086,41.905c-12.601,71.6 -25.24,151.739 -35.483,298.685c-12.023,30.356 -58.04,113.236 -56.489,119.023c0.388,1.447 3.333,3.759 6.95,2.789c13.342,-16.755 22.472,-46.335 44.957,-81.046c2.326,8.68 -3.731,26.584 -6.89,87.126c-26.902,52.949 -76.427,186.387 -64.992,229.064c2.713,10.127 9.715,16.003 19.118,13.484c36.89,-9.885 40.863,-76.072 61.839,-243.725c3.253,-22.579 35.738,-46.014 49.481,-49.696c18.083,-4.845 23.832,2.142 26.352,11.546c11.823,44.124 -33.75,174.952 -19.989,226.309Z"/><path d="M2409.69,600.927c5.427,20.254 18.914,44.549 42.061,38.347c32.55,-8.722 60.096,-88.203 65.443,-94.287c1.952,18.859 1.101,33.042 4.977,47.509c2.52,9.403 10.93,23.431 24.673,19.748c45.57,-12.211 64.248,-165.292 62.504,-171.802c-0.969,-3.617 -2.416,-3.229 -3.862,-2.841c-3.617,0.969 -17.149,60.415 -22.78,71.227c-4.378,9.701 -11.649,20.177 -21.582,23.614c-5.063,1.357 -8.538,-0.038 -10.089,-5.825c-3.683,-13.743 -5.815,-21.7 -4.136,-29.903c3.357,-16.405 16.363,-31.519 29.871,-70.801c6.78,-18.097 14.657,-46.567 9.618,-65.374c-6.202,-23.147 -23.317,-14.685 -24.092,-17.578c-1.163,-4.34 16.221,-29.155 8.856,-56.642c-4.652,-17.36 -13.965,-20.292 -30.602,-15.834c-75.227,20.157 -152.568,249.429 -130.86,330.443Zm38.371,-62.225c-16.475,-61.484 29.448,-182.327 69.232,-192.987c8.68,-2.326 12.736,1.239 14.675,8.472c6.008,22.424 -21.281,73.926 -43.057,96.817c-0.53,0.917 -0.865,2.558 -0.478,4.004c0.581,2.17 2.803,4.676 7.867,3.319c2.17,-0.581 5.683,-7.725 37.572,-44.955c3.295,12.297 -4.329,131.406 -54.239,144.779c-15.19,4.07 -27.695,-4.984 -31.571,-19.45Z"/><path d="M2681.468,483.914c-10.85,2.907 -44.933,60.882 -38.537,84.752c4.264,15.913 21.147,15.266 36.337,11.196c52.804,-14.149 123.929,-116.161 108.618,-173.305c-8.334,-31.104 -39.504,-37.482 -65.028,-43.047c58.441,-100.164 81.546,-141.242 77.088,-157.879c-2.713,-10.127 -13.615,-10.307 -21.572,-8.175c-60.761,16.281 -146.792,117.635 -129.93,180.566c5.815,21.7 17.26,32.588 30.63,39.084c-16.945,29.349 -32.301,55.947 -39.133,70.957c-0.53,0.917 -0.336,1.64 -0.142,2.364c0.388,1.447 2.222,2.506 4.392,1.924c2.893,-0.775 23.932,-35.098 45.307,-71.061c27.023,8.265 58.037,5.381 65.402,32.868c7.559,28.21 -23.077,64.329 -50.564,71.694c-10.127,2.713 -20.835,3.257 -23.936,-8.317c-2.132,-7.957 7.012,-25.912 5.461,-31.699c-0.388,-1.447 -2.222,-2.506 -4.392,-1.924Zm1.705,-146.984c-8.916,-33.274 36.963,-70.375 61.556,-76.965c7.233,-1.938 12.878,-1.125 14.235,3.938c2.52,9.403 -20.392,51.205 -46.868,97.063c-14.429,-4.662 -25.435,-11.016 -28.923,-24.036Z"/><path d="M2820.882,489.198c6.784,25.317 26.535,44.058 53.299,36.887c59.314,-15.893 102.935,-165.58 98.671,-181.493c-0.775,-2.893 -2.274,-5.593 -4.444,-5.011c-5.787,1.551 -18.644,101.129 -75.787,116.441c-15.913,4.264 -28.664,-8.6 -32.734,-23.79c30.197,-40.653 80.283,-108.342 99.37,-161.524c9.04,-24.13 21.399,-56.127 14.034,-83.613c-3.876,-14.467 -16.962,-25.691 -33.599,-21.233c-81.737,21.901 -143.037,232.92 -118.809,323.337Zm97.916,-247.965c9.403,-2.52 10.566,1.82 12.311,8.33c11.048,41.23 -53.866,134.601 -78.521,169.892c-16.281,-60.761 24.257,-166.981 66.211,-178.223Z"/></g><g><path d="M2270.165,764.935l20.061,-5.375l0.43,1.604c0.977,3.647 1.413,6.991 1.306,10.03c-0.142,2.824 -0.905,5.635 -2.29,8.432c-3.148,6.28 -8.201,10.353 -15.16,12.218c-6.792,1.82 -13.266,0.926 -19.422,-2.682c-6.162,-3.629 -10.167,-8.891 -12.015,-15.788c-1.887,-7.043 -1.025,-13.677 2.587,-19.902c3.606,-6.246 8.941,-10.315 16.005,-12.208c3.794,-1.017 7.544,-1.19 11.251,-0.521c3.56,0.709 7.326,2.396 11.298,5.061l-3.88,6.398c-5.404,-4.236 -10.967,-5.588 -16.69,-4.054c-5.136,1.376 -8.969,4.302 -11.499,8.777c-2.547,4.412 -3.119,9.238 -1.715,14.479c1.449,5.408 4.582,9.343 9.398,11.805c4.497,2.277 8.863,2.849 13.097,1.714c3.605,-0.966 6.518,-3.05 8.739,-6.251c2.215,-3.222 3.032,-6.586 2.452,-10.093l-12.106,3.244l-1.845,-6.886Z"/><path d="M2300.53,731.861l7.835,29.242c1.118,4.171 2.616,7.039 4.495,8.602c2.78,2.243 6.015,2.87 9.704,1.882c3.71,-0.994 6.209,-3.158 7.495,-6.49c0.863,-2.231 0.727,-5.463 -0.408,-9.698l-7.835,-29.242l7.326,-1.963l8.375,31.254c1.37,5.115 0.906,9.755 -1.392,13.921c-2.596,4.65 -6.504,7.674 -11.723,9.072c-5.22,1.399 -10.105,0.731 -14.657,-2.004c-4.074,-2.458 -6.796,-6.245 -8.166,-11.359l-8.375,-31.254l7.326,-1.963Z"/><path d="M2348.104,719.113l13.008,48.548l-7.326,1.963l-13.008,-48.548l7.326,-1.963Z"/><path d="M2375.009,719.285l11.163,41.662l-7.326,1.963l-11.163,-41.662l-11.162,2.991l-1.845,-6.886l29.619,-7.936l1.845,6.886l-11.131,2.982Z"/><path d="M2426.561,737.487l-20.784,5.569l-2.249,13.24l-7.892,2.115l10.197,-58.035l36.999,45.388l-8.018,2.148l-8.253,-10.426Zm-4.832,-6.086l-11.624,-14.578l-3.123,18.53l14.747,-3.951Z"/><path d="M2459.801,719.043l20.573,16.662l-8.961,2.401l-19.191,-16.156l-1.321,0.354l5.325,19.872l-7.326,1.963l-13.008,-48.548l8.584,-2.3c6.414,-1.719 11.37,-1.755 14.867,-0.108c3.863,1.841 6.385,4.962 7.564,9.364c0.921,3.438 0.728,6.657 -0.58,9.659c-1.308,3.001 -3.483,5.281 -6.526,6.837Zm-10.61,-3.122l2.327,-0.623c6.938,-1.859 9.697,-5.44 8.276,-10.744c-1.331,-4.968 -5.372,-6.548 -12.121,-4.739l-2.61,0.699l4.128,15.407Z"/><path d="M2496.923,679.237l21.335,29.062l3.879,-38.346l21.967,31.42l4.731,-36.047l7.955,-2.132l-7.862,57.443l-21.7,-31.054l-3.792,37.918l-34.469,-46.134l7.955,-2.132Z"/><path d="M2564.65,686.871c-1.831,-6.834 -0.899,-13.374 2.797,-19.622c3.675,-6.242 9.013,-10.301 16.014,-12.177c6.917,-1.854 13.512,-0.97 19.785,2.652c6.294,3.616 10.37,8.893 12.229,15.831c1.87,6.98 0.963,13.57 -2.723,19.77c-3.701,6.227 -9.094,10.289 -16.18,12.187c-6.268,1.679 -12.477,1.018 -18.629,-1.984c-6.778,-3.329 -11.209,-8.881 -13.293,-16.658Zm7.414,-1.886c1.438,5.366 4.423,9.296 8.955,11.788c4.511,2.498 9.115,3.118 13.81,1.86c5.094,-1.365 8.919,-4.277 11.476,-8.737c2.546,-4.502 3.133,-9.31 1.763,-14.424c-1.387,-5.178 -4.279,-9.053 -8.676,-11.627c-4.381,-2.6 -9.108,-3.221 -14.181,-1.862c-5.052,1.354 -8.846,4.257 -11.382,8.711c-2.547,4.412 -3.136,9.175 -1.765,14.29Z"/><path d="M2642.076,670.202l20.573,16.662l-8.961,2.401l-19.191,-16.156l-1.321,0.354l5.325,19.872l-7.326,1.963l-13.008,-48.548l8.584,-2.3c6.414,-1.719 11.37,-1.755 14.867,-0.108c3.863,1.841 6.385,4.962 7.564,9.364c0.921,3.438 0.728,6.657 -0.58,9.659c-1.308,3.001 -3.483,5.281 -6.526,6.837Zm-10.61,-3.122l2.327,-0.623c6.938,-1.859 9.697,-5.44 8.276,-10.744c-1.331,-4.968 -5.372,-6.548 -12.121,-4.739l-2.61,0.699l4.128,15.407Z"/><path d="M2669.452,653.768l13.707,-24.432l9.779,-2.62l-16.058,27.859l29.192,20.655l-9.81,2.629l-23.27,-16.917l-1.105,1.914l5.384,20.092l-7.326,1.963l-13.008,-48.548l7.326,-1.963l5.19,19.369Z"/><path d="M2727.199,625.286l-4.999,5.114c-1.628,-1.631 -3.023,-2.605 -4.187,-2.922c-1.228,-0.39 -2.67,-0.363 -4.326,0.081c-2.033,0.545 -3.566,1.573 -4.599,3.086c-1.038,1.491 -1.327,3.097 -0.867,4.815c0.635,2.369 2.907,3.804 6.816,4.307l5.373,0.683c4.368,0.537 7.771,1.709 10.21,3.516c2.439,1.807 4.105,4.376 4.998,7.709c1.196,4.465 0.697,8.553 -1.499,12.264c-2.211,3.738 -5.539,6.202 -9.983,7.393c-4.213,1.129 -8.027,0.814 -11.442,-0.945c-3.372,-1.77 -6.001,-4.829 -7.885,-9.177l6.982,-3.623c1.099,2.761 2.214,4.574 3.345,5.439c2.071,1.692 4.553,2.15 7.446,1.375c2.285,-0.612 3.977,-1.886 5.076,-3.82c1.099,-1.935 1.334,-4.076 0.705,-6.424c-0.253,-0.943 -0.615,-1.773 -1.088,-2.489c-0.473,-0.716 -1.075,-1.33 -1.808,-1.841c-0.732,-0.511 -1.616,-0.937 -2.651,-1.278c-1.035,-0.341 -2.23,-0.61 -3.587,-0.808l-5.207,-0.694c-7.398,-1.028 -11.821,-4.247 -13.27,-9.655c-0.977,-3.647 -0.401,-7.071 1.73,-10.27c2.125,-3.221 5.263,-5.387 9.413,-6.499c5.597,-1.5 10.698,0.054 15.302,4.662Z"/><path d="M2747.769,632.378l20.941,-5.611l-5.089,-18.992l7.326,-1.963l13.008,48.548l-7.326,1.963l-6.074,-22.67l-20.941,5.611l6.074,22.67l-7.326,1.963l-13.008,-48.548l7.326,-1.963l5.089,18.992Z"/><path d="M2786.606,627.398c-1.831,-6.834 -0.899,-13.374 2.797,-19.622c3.675,-6.242 9.013,-10.301 16.014,-12.177c6.917,-1.854 13.512,-0.97 19.785,2.652c6.294,3.616 10.37,8.893 12.229,15.831c1.87,6.98 0.963,13.57 -2.723,19.77c-3.701,6.227 -9.094,10.289 -16.18,12.187c-6.268,1.679 -12.477,1.018 -18.629,-1.984c-6.778,-3.329 -11.209,-8.881 -13.293,-16.658Zm7.414,-1.886c1.438,5.366 4.423,9.296 8.955,11.788c4.511,2.498 9.115,3.118 13.81,1.86c5.094,-1.365 8.919,-4.277 11.476,-8.737c2.546,-4.502 3.133,-9.31 1.763,-14.424c-1.387,-5.178 -4.279,-9.053 -8.676,-11.627c-4.381,-2.6 -9.108,-3.221 -14.181,-1.862c-5.052,1.354 -8.846,4.257 -11.382,8.711c-2.547,4.412 -3.136,9.175 -1.765,14.29Z"/><path d="M2855.174,614.148l5.283,19.715l-7.326,1.963l-13.008,-48.548l8.301,-2.224c4.067,-1.09 7.213,-1.63 9.44,-1.62c2.248,0.004 4.379,0.579 6.393,1.724c3.518,1.978 5.833,5.042 6.945,9.193c1.191,4.444 0.646,8.364 -1.634,11.761c-2.28,3.397 -5.946,5.772 -10.998,7.126l-3.396,0.91Zm-1.82,-6.792l2.736,-0.733c6.729,-1.803 9.4,-5.293 8.012,-10.471c-1.342,-5.01 -5.483,-6.585 -12.421,-4.726l-2.421,0.649l4.095,15.281Z"/></g></svg>