<?xml version="1.0" encoding="UTF-8" standalone="no"?>
<!DOCTYPE svg PUBLIC "-//W3C//DTD SVG 1.1//EN" "http://www.w3.org/Graphics/SVG/1.1/DTD/svg11.dtd">
<svg width="100%" height="100%" viewBox="0 0 713 315" version="1.1" xmlns="http://www.w3.org/2000/svg" xmlns:xlink="http://www.w3.org/1999/xlink" xml:space="preserve" xmlns:serif="http://www.serif.com/" style="fill-rule:evenodd;clip-rule:evenodd;stroke-linejoin:round;stroke-miterlimit:2;">
    <g transform="matrix(1,0,0,1,-10674.573949,-278.975967)">
        <g transform="matrix(1,0,0,1,10263,0)">
            <g id="Out-of-Phase" serif:id="Out of Phase" transform="matrix(9.644525,-2.584243,2.584243,9.644525,1128.514945,395.592495)">
                <path d="M-72.99,-3.384C-72.99,-0.828 -71.532,1.962 -68.634,1.962C-62.946,1.962 -57.942,-7.92 -57.942,-12.708C-57.942,-14.076 -58.176,-16.308 -59.958,-16.308C-61.614,-16.308 -63.162,-14.85 -64.116,-13.662C-66.834,-10.278 -68.634,-6.318 -70.2,-2.304C-70.2,-2.268 -70.236,-2.16 -70.236,-2.052C-70.236,-1.944 -70.2,-1.836 -70.11,-1.836C-70.002,-1.836 -69.894,-2.304 -69.822,-2.502C-67.158,-8.622 -65.718,-10.836 -63.594,-12.816C-62.838,-13.518 -61.866,-14.202 -60.786,-14.202C-59.364,-14.202 -59.076,-12.996 -59.076,-11.826C-59.076,-7.452 -63.198,0.702 -67.734,0.702C-70.362,0.702 -71.352,-1.692 -71.352,-3.978C-71.352,-8.208 -67.878,-13.266 -63.774,-15.066C-63.324,-15.264 -62.802,-15.228 -62.802,-15.39C-62.802,-15.552 -62.892,-15.606 -63,-15.606C-63.09,-15.606 -63.72,-15.426 -63.828,-15.39C-68.796,-13.608 -72.99,-9.45 -72.99,-3.384Z" style="fill-rule:nonzero;"/>
                <path d="M-56.88,-0.378C-56.88,-0.09 -56.772,0.234 -56.43,0.234C-55.584,0.234 -54.036,-3.096 -54.036,-3.276C-54.036,-3.348 -54.036,-3.402 -54.108,-3.402C-54.378,-3.402 -54.738,-1.962 -55.314,-1.962C-55.494,-1.962 -55.548,-2.178 -55.548,-2.304C-55.548,-2.952 -54.936,-3.96 -53.334,-7.272C-53.298,-7.326 -53.298,-7.362 -53.298,-7.416C-53.298,-7.632 -53.676,-7.686 -53.856,-7.686C-54.234,-7.686 -54.648,-6.534 -54.954,-5.922C-55.818,-4.158 -57.276,-1.908 -57.978,-1.908C-58.212,-1.908 -58.32,-2.088 -58.32,-2.304C-58.32,-3.168 -56.286,-6.048 -56.286,-7.218C-56.286,-7.542 -56.538,-7.812 -56.862,-7.812C-57.51,-7.812 -58.482,-6.12 -58.59,-5.976C-58.95,-5.364 -59.4,-4.446 -59.4,-4.248C-59.4,-4.194 -59.4,-4.104 -59.31,-4.104C-59.238,-4.104 -58.986,-4.716 -58.68,-5.112C-58.5,-5.346 -58.248,-5.67 -57.942,-5.67C-57.762,-5.67 -57.744,-5.49 -57.744,-5.31C-57.744,-4.698 -59.688,-1.44 -59.688,-0.414C-59.688,-0.198 -59.508,0.18 -59.202,0.18C-58.248,0.18 -57.204,-1.674 -57.168,-1.746C-56.286,-3.168 -55.35,-4.788 -55.206,-4.896C-55.206,-4.608 -56.88,-1.296 -56.88,-0.378Z" style="fill-rule:nonzero;"/>
                <path d="M-49.788,-6.696C-49.572,-6.696 -49.122,-7.146 -49.122,-7.398C-49.122,-7.488 -49.194,-7.542 -49.338,-7.542L-50.292,-7.542C-49.194,-9.324 -48.222,-11.394 -48.222,-12.078C-48.222,-12.69 -48.438,-12.798 -48.582,-12.798C-49.248,-12.798 -50.166,-10.206 -51.39,-7.542L-52.182,-7.542C-52.452,-7.524 -52.704,-7.308 -52.704,-6.984C-52.704,-6.894 -52.686,-6.786 -52.632,-6.696L-51.804,-6.696C-52.092,-6.084 -52.416,-5.49 -52.74,-4.95C-53.244,-4.122 -54.45,-2.97 -54.45,-2.862C-54.45,-2.808 -54.432,-2.754 -54.378,-2.754C-54.252,-2.754 -53.478,-3.654 -53.154,-3.924C-53.442,-2.952 -54.576,-0.936 -54.576,-0.468C-54.576,-0.198 -54.414,0.18 -54.09,0.18C-53.028,0.18 -51.066,-3.672 -51.066,-3.87C-51.066,-3.924 -51.12,-3.978 -51.192,-3.978C-51.354,-3.978 -52.074,-1.962 -52.812,-1.962C-53.064,-1.962 -53.118,-2.106 -53.118,-2.322C-53.118,-2.988 -52.2,-4.572 -51.804,-5.4C-51.498,-5.742 -51.174,-6.192 -50.832,-6.696L-49.788,-6.696Z" style="fill-rule:nonzero;"/>
                <path d="M-46.098,-1.08C-46.098,-0.306 -45.756,0.18 -44.964,0.18C-43.722,0.18 -42.624,-1.728 -42.516,-1.908C-42.39,-2.142 -41.796,-3.222 -41.688,-3.456C-41.526,-3.546 -40.698,-4.5 -40.698,-4.626C-40.698,-4.662 -40.734,-4.77 -40.77,-4.77C-40.842,-4.77 -41.058,-4.446 -41.49,-4.032C-41.454,-4.122 -41.418,-4.302 -41.418,-4.5C-41.418,-4.644 -41.436,-4.824 -41.526,-4.95C-41.13,-5.49 -40.734,-6.156 -40.734,-6.858C-40.734,-7.272 -41.004,-7.596 -41.454,-7.596C-43.65,-7.596 -46.098,-2.988 -46.098,-1.08ZM-45.036,-2.448C-45.036,-3.78 -43.812,-6.048 -42.246,-6.048C-41.976,-6.048 -41.652,-5.832 -41.652,-5.49C-41.652,-5.4 -41.652,-5.22 -41.724,-5.166L-41.778,-5.112C-41.832,-5.13 -41.886,-5.13 -41.94,-5.13C-42.606,-5.13 -43.38,-4.068 -43.38,-3.168C-43.38,-2.934 -43.326,-2.844 -43.002,-2.844C-42.714,-2.844 -42.588,-2.934 -42.264,-3.042C-42.264,-2.7 -43.218,-1.314 -44.208,-1.314C-44.838,-1.314 -45.036,-1.89 -45.036,-2.448Z" style="fill-rule:nonzero;"/>
                <path d="M-42.606,4.806C-41.688,4.806 -39.906,0.324 -39.474,-1.026C-39.366,-1.368 -39.33,-1.476 -39.06,-1.476C-38.79,-1.476 -38.592,-2.304 -38.592,-2.52C-38.592,-2.646 -38.646,-2.646 -39.024,-2.646L-38.322,-5.472C-36.432,-8.136 -34.2,-14.148 -34.2,-15.12C-34.2,-15.282 -34.2,-15.39 -34.38,-15.39C-35.532,-15.39 -37.8,-9.09 -38.934,-5.346C-39.87,-4.356 -40.428,-3.888 -40.428,-3.834C-40.428,-3.798 -40.266,-3.708 -40.212,-3.708C-39.798,-4.122 -39.294,-4.518 -39.168,-4.572C-39.294,-4.05 -39.672,-2.952 -39.816,-2.664C-39.816,-2.646 -40.104,-2.646 -40.752,-2.646C-40.824,-2.43 -40.968,-1.89 -41.166,-1.494L-40.266,-1.494C-40.338,-1.188 -40.536,-0.54 -41.922,1.98C-42.156,2.304 -42.39,2.826 -42.588,2.826C-42.858,2.826 -43.47,3.888 -43.47,4.194C-43.47,4.554 -42.876,4.806 -42.606,4.806Z" style="fill-rule:nonzero;"/>
                <path d="M-24.12,-6.732C-24.354,-6.66 -24.642,-6.624 -24.948,-6.57C-23.958,-9.36 -23.148,-11.628 -22.626,-12.186C-22.248,-12.582 -21.492,-13.392 -21.492,-13.788C-21.492,-14.292 -21.852,-14.418 -22.302,-14.418C-22.608,-14.418 -22.788,-14.292 -22.86,-14.004L-26.226,-9.432C-26.226,-9.36 -26.19,-9.324 -26.118,-9.324C-25.704,-9.324 -24.57,-11.322 -23.58,-12.312C-24.318,-10.746 -25.272,-8.46 -26.154,-6.444C-27.198,-6.354 -28.188,-6.336 -28.332,-6.336C-28.332,-6.156 -28.26,-6.048 -28.134,-5.976C-28.062,-5.976 -27.27,-5.994 -26.316,-6.048C-27.252,-3.816 -28.044,-1.998 -28.098,-1.998C-28.152,-1.998 -28.26,-2.088 -28.332,-2.088C-28.746,-2.088 -29.61,0.594 -29.61,1.044C-29.61,1.458 -29.196,1.782 -28.782,1.782C-27.972,1.782 -27.36,-0.288 -26.946,-1.296C-26.28,-2.916 -25.668,-4.608 -25.11,-6.156C-24.768,-6.192 -24.426,-6.246 -24.12,-6.3C-20.484,-6.93 -16.308,-8.73 -16.308,-12.834C-16.308,-15.768 -19.206,-16.452 -22.086,-16.452C-26.964,-16.452 -31.986,-14.49 -31.986,-10.566C-31.986,-7.83 -30.474,-5.202 -28.494,-3.366C-28.476,-3.348 -28.44,-3.33 -28.422,-3.33C-28.332,-3.33 -28.26,-3.402 -28.26,-3.492C-28.26,-3.528 -28.278,-3.564 -28.314,-3.6C-29.898,-5.238 -30.978,-7.056 -30.978,-9.126C-30.978,-13.95 -26.172,-15.714 -21.96,-15.714C-19.764,-15.714 -18.108,-14.706 -18.108,-12.51C-18.108,-8.784 -21.312,-7.326 -24.12,-6.732Z" style="fill-rule:nonzero;"/>
                <path d="M-17.334,-0.414C-17.334,-0.126 -17.226,0.198 -16.902,0.198C-16.038,0.198 -15.12,-1.89 -14.742,-2.646C-14.508,-3.132 -14.31,-3.618 -14.31,-3.87C-14.31,-3.906 -14.31,-3.942 -14.364,-3.942C-14.616,-3.816 -15.12,-2.232 -15.624,-2.232C-15.804,-2.232 -15.894,-2.34 -15.894,-2.52C-15.894,-3.042 -14.238,-5.814 -14.238,-6.984C-14.238,-7.38 -14.31,-7.686 -14.742,-7.686C-15.192,-7.686 -15.75,-7.38 -17.226,-5.796L-16.11,-8.55C-15.174,-9.486 -12.726,-13.806 -12.726,-15.066C-12.726,-15.462 -12.996,-15.606 -13.158,-15.606C-13.572,-15.606 -13.95,-15.138 -14.094,-14.814C-14.832,-13.23 -15.624,-11.448 -16.776,-8.1C-17.244,-7.47 -18.828,-5.832 -18.828,-5.688C-18.828,-5.652 -18.774,-5.58 -18.684,-5.58C-18.27,-5.886 -17.874,-6.516 -17.136,-7.182C-17.136,-6.966 -17.388,-6.588 -17.838,-5.202C-18.792,-4.14 -20.772,-1.35 -20.772,-0.288C-20.772,-0.036 -20.646,0.144 -20.412,0.144C-19.494,0.144 -18.99,-1.368 -17.46,-5.13C-17.244,-5.634 -16.344,-5.976 -16.002,-5.976C-15.552,-5.976 -15.462,-5.778 -15.462,-5.544C-15.462,-4.446 -17.334,-1.692 -17.334,-0.414Z" style="fill-rule:nonzero;"/>
                <path d="M-14.31,-0.972C-14.31,-0.468 -14.148,0.18 -13.572,0.18C-12.762,0.18 -11.628,-1.494 -11.466,-1.602C-11.538,-1.152 -11.646,-0.828 -11.646,-0.468C-11.646,-0.234 -11.538,0.144 -11.196,0.144C-10.062,0.144 -8.676,-3.294 -8.676,-3.456C-8.676,-3.546 -8.712,-3.546 -8.748,-3.546C-8.838,-3.546 -9.522,-2.25 -9.72,-2.034C-9.882,-1.836 -10.116,-1.638 -10.368,-1.62C-10.494,-1.62 -10.566,-1.674 -10.566,-1.818C-10.566,-2.16 -10.566,-2.358 -10.476,-2.538C-10.296,-2.898 -9.9,-3.168 -9.342,-3.996C-9.072,-4.374 -8.712,-4.986 -8.712,-5.454C-8.712,-6.03 -9.162,-5.94 -9.162,-6.012C-9.162,-6.12 -8.604,-6.588 -8.604,-7.272C-8.604,-7.704 -8.802,-7.83 -9.216,-7.83C-11.088,-7.83 -14.31,-2.988 -14.31,-0.972ZM-13.032,-2.178C-13.032,-3.708 -11.214,-6.228 -10.224,-6.228C-10.008,-6.228 -9.936,-6.12 -9.936,-5.94C-9.936,-5.382 -10.89,-4.356 -11.538,-3.96C-11.556,-3.942 -11.574,-3.906 -11.574,-3.87C-11.574,-3.816 -11.538,-3.744 -11.412,-3.744C-11.358,-3.744 -11.232,-3.888 -10.26,-4.554C-10.26,-4.248 -11.178,-1.53 -12.42,-1.53C-12.798,-1.53 -13.032,-1.818 -13.032,-2.178Z" style="fill-rule:nonzero;"/>
                <path d="M-7.272,-1.998C-7.542,-1.998 -8.694,-0.864 -8.694,-0.27C-8.694,0.126 -8.298,0.216 -7.92,0.216C-6.606,0.216 -4.32,-1.71 -4.32,-3.132C-4.32,-3.906 -5.004,-4.248 -5.562,-4.536C-3.582,-6.498 -2.79,-7.308 -2.79,-7.722C-2.79,-7.974 -3.042,-8.046 -3.24,-8.046C-4.752,-8.046 -7.38,-6.228 -7.38,-4.662C-7.38,-4.122 -7.182,-3.798 -6.912,-3.564C-7.488,-2.988 -8.01,-2.466 -8.262,-2.16C-8.28,-2.142 -8.28,-2.124 -8.28,-2.106C-8.28,-2.07 -8.244,-2.034 -8.19,-2.034C-8.118,-2.034 -7.416,-2.7 -6.696,-3.402C-6.12,-3.042 -5.382,-2.916 -5.382,-2.232C-5.382,-1.53 -6.318,-0.882 -7.002,-0.882C-7.254,-0.882 -7.506,-0.936 -7.506,-1.224C-7.506,-1.422 -7.182,-1.782 -7.182,-1.926C-7.182,-1.962 -7.218,-1.998 -7.272,-1.998ZM-6.318,-5.4C-6.318,-6.228 -5.022,-6.804 -4.41,-6.804C-4.23,-6.804 -4.104,-6.75 -4.104,-6.624C-4.104,-6.39 -4.896,-5.562 -5.796,-4.662C-6.102,-4.86 -6.318,-5.076 -6.318,-5.4Z" style="fill-rule:nonzero;"/>
                <path d="M-4.068,-1.008C-4.068,-0.378 -3.726,0.18 -3.06,0.18C-1.584,0.18 0.36,-3.024 0.36,-3.42C0.36,-3.492 0.342,-3.564 0.288,-3.564C0.144,-3.564 -0.774,-1.332 -2.196,-1.332C-2.592,-1.332 -2.808,-1.71 -2.808,-2.088C-1.854,-2.844 -0.27,-4.104 0.504,-5.22C0.864,-5.724 1.35,-6.39 1.35,-7.074C1.35,-7.434 1.116,-7.776 0.702,-7.776C-1.332,-7.776 -4.068,-3.258 -4.068,-1.008ZM-0.252,-6.156C-0.018,-6.156 -0.018,-6.048 -0.018,-5.886C-0.018,-4.86 -2.106,-3.096 -2.898,-2.43C-2.898,-3.942 -1.296,-6.156 -0.252,-6.156Z" style="fill-rule:nonzero;"/>
            </g>
            <g id="Workshop" transform="matrix(0.965926,-0.258819,0.258819,0.965926,1101.36575,429.711746)">
                <path d="M-150.359,-6.281L-145.375,-6.281L-145.375,-5.883C-145.375,-4.977 -145.482,-4.174 -145.695,-3.477C-145.904,-2.831 -146.255,-2.227 -146.75,-1.664C-147.87,-0.404 -149.294,0.227 -151.023,0.227C-152.711,0.227 -154.156,-0.383 -155.359,-1.602C-156.562,-2.826 -157.164,-4.294 -157.164,-6.008C-157.164,-7.758 -156.552,-9.242 -155.328,-10.461C-154.104,-11.685 -152.615,-12.297 -150.859,-12.297C-149.917,-12.297 -149.036,-12.104 -148.219,-11.719C-147.438,-11.333 -146.669,-10.708 -145.914,-9.844L-147.211,-8.602C-148.201,-9.919 -149.406,-10.578 -150.828,-10.578C-152.104,-10.578 -153.174,-10.138 -154.039,-9.258C-154.904,-8.393 -155.336,-7.31 -155.336,-6.008C-155.336,-4.664 -154.854,-3.557 -153.891,-2.688C-152.99,-1.88 -152.013,-1.477 -150.961,-1.477C-150.065,-1.477 -149.26,-1.779 -148.547,-2.383C-147.833,-2.992 -147.435,-3.721 -147.352,-4.57L-150.359,-4.57L-150.359,-6.281Z" style="fill-rule:nonzero;"/>
                <path d="M-141.266,-12.062L-141.266,-4.797C-141.266,-3.76 -141.096,-3.003 -140.758,-2.523C-140.253,-1.831 -139.542,-1.484 -138.625,-1.484C-137.703,-1.484 -136.99,-1.831 -136.484,-2.523C-136.146,-2.987 -135.977,-3.745 -135.977,-4.797L-135.977,-12.062L-134.156,-12.062L-134.156,-4.297C-134.156,-3.026 -134.552,-1.979 -135.344,-1.156C-136.234,-0.24 -137.328,0.219 -138.625,0.219C-139.922,0.219 -141.013,-0.24 -141.898,-1.156C-142.69,-1.979 -143.086,-3.026 -143.086,-4.297L-143.086,-12.062L-141.266,-12.062Z" style="fill-rule:nonzero;"/>
                <rect x="-131.266" y="-12.062" width="1.82" height="12.062" style="fill-rule:nonzero;"/>
                <path d="M-123.219,-10.352L-123.219,0L-125.039,0L-125.039,-10.352L-127.812,-10.352L-127.812,-12.062L-120.453,-12.062L-120.453,-10.352L-123.219,-10.352Z" style="fill-rule:nonzero;"/>
                <path d="M-112.398,-2.93L-117.562,-2.93L-118.906,0L-120.867,0L-114.898,-12.82L-109.141,0L-111.133,0L-112.398,-2.93ZM-113.141,-4.641L-114.93,-8.742L-116.805,-4.641L-113.141,-4.641Z" style="fill-rule:nonzero;"/>
                <path d="M-103.547,-5.141L-99.812,0L-102.039,0L-105.484,-4.938L-105.812,-4.938L-105.812,0L-107.633,0L-107.633,-12.062L-105.5,-12.062C-103.906,-12.062 -102.755,-11.763 -102.047,-11.164C-101.266,-10.497 -100.875,-9.617 -100.875,-8.523C-100.875,-7.669 -101.12,-6.935 -101.609,-6.32C-102.099,-5.706 -102.745,-5.312 -103.547,-5.141ZM-105.812,-6.523L-105.234,-6.523C-103.51,-6.523 -102.648,-7.182 -102.648,-8.5C-102.648,-9.734 -103.487,-10.352 -105.164,-10.352L-105.812,-10.352L-105.812,-6.523Z" style="fill-rule:nonzero;"/>
                <path d="M-92.469,-12.062L-89.328,-4L-86.047,-12.648L-82.906,-4L-79.57,-12.062L-77.594,-12.062L-82.984,0.766L-86.086,-7.781L-89.32,0.773L-94.445,-12.062L-92.469,-12.062Z" style="fill-rule:nonzero;"/>
                <path d="M-77.242,-6.086C-77.242,-7.784 -76.62,-9.242 -75.375,-10.461C-74.135,-11.68 -72.646,-12.289 -70.906,-12.289C-69.188,-12.289 -67.714,-11.674 -66.484,-10.445C-65.25,-9.216 -64.633,-7.74 -64.633,-6.016C-64.633,-4.281 -65.253,-2.81 -66.492,-1.602C-67.737,-0.388 -69.24,0.219 -71,0.219C-72.557,0.219 -73.956,-0.32 -75.195,-1.398C-76.56,-2.591 -77.242,-4.154 -77.242,-6.086ZM-75.406,-6.062C-75.406,-4.729 -74.958,-3.633 -74.062,-2.773C-73.172,-1.914 -72.143,-1.484 -70.977,-1.484C-69.711,-1.484 -68.643,-1.922 -67.773,-2.797C-66.904,-3.682 -66.469,-4.76 -66.469,-6.031C-66.469,-7.318 -66.898,-8.396 -67.758,-9.266C-68.612,-10.141 -69.669,-10.578 -70.93,-10.578C-72.185,-10.578 -73.245,-10.141 -74.109,-9.266C-74.974,-8.401 -75.406,-7.333 -75.406,-6.062Z" style="fill-rule:nonzero;"/>
                <path d="M-58.258,-5.141L-54.523,0L-56.75,0L-60.195,-4.938L-60.523,-4.938L-60.523,0L-62.344,0L-62.344,-12.062L-60.211,-12.062C-58.617,-12.062 -57.466,-11.763 -56.758,-11.164C-55.977,-10.497 -55.586,-9.617 -55.586,-8.523C-55.586,-7.669 -55.831,-6.935 -56.32,-6.32C-56.81,-5.706 -57.456,-5.312 -58.258,-5.141ZM-60.523,-6.523L-59.945,-6.523C-58.221,-6.523 -57.359,-7.182 -57.359,-8.5C-57.359,-9.734 -58.198,-10.352 -59.875,-10.352L-60.523,-10.352L-60.523,-6.523Z" style="fill-rule:nonzero;"/>
                <path d="M-50.891,-7.25L-46.195,-12.062L-43.766,-12.062L-49.219,-6.602L-43.734,0L-46.172,0L-50.516,-5.367L-50.891,-4.992L-50.891,0L-52.711,0L-52.711,-12.062L-50.891,-12.062L-50.891,-7.25Z" style="fill-rule:nonzero;"/>
                <path d="M-35.734,-10.266L-37.211,-9.391C-37.487,-9.87 -37.75,-10.182 -38,-10.328C-38.26,-10.495 -38.596,-10.578 -39.008,-10.578C-39.513,-10.578 -39.932,-10.435 -40.266,-10.148C-40.599,-9.867 -40.766,-9.513 -40.766,-9.086C-40.766,-8.497 -40.328,-8.023 -39.453,-7.664L-38.25,-7.172C-37.271,-6.776 -36.555,-6.293 -36.102,-5.723C-35.648,-5.152 -35.422,-4.453 -35.422,-3.625C-35.422,-2.516 -35.792,-1.599 -36.531,-0.875C-37.276,-0.146 -38.201,0.219 -39.305,0.219C-40.352,0.219 -41.216,-0.091 -41.898,-0.711C-42.57,-1.331 -42.99,-2.203 -43.156,-3.328L-41.312,-3.734C-41.229,-3.026 -41.083,-2.536 -40.875,-2.266C-40.5,-1.745 -39.953,-1.484 -39.234,-1.484C-38.667,-1.484 -38.195,-1.674 -37.82,-2.055C-37.445,-2.435 -37.258,-2.917 -37.258,-3.5C-37.258,-3.734 -37.29,-3.949 -37.355,-4.145C-37.421,-4.34 -37.522,-4.52 -37.66,-4.684C-37.798,-4.848 -37.977,-5.001 -38.195,-5.145C-38.414,-5.288 -38.674,-5.424 -38.977,-5.555L-40.141,-6.039C-41.792,-6.737 -42.617,-7.758 -42.617,-9.102C-42.617,-10.008 -42.271,-10.766 -41.578,-11.375C-40.885,-11.99 -40.023,-12.297 -38.992,-12.297C-37.602,-12.297 -36.516,-11.62 -35.734,-10.266Z" style="fill-rule:nonzero;"/>
                <path d="M-31.406,-7.344L-26.203,-7.344L-26.203,-12.062L-24.383,-12.062L-24.383,0L-26.203,0L-26.203,-5.633L-31.406,-5.633L-31.406,0L-33.227,0L-33.227,-12.062L-31.406,-12.062L-31.406,-7.344Z" style="fill-rule:nonzero;"/>
                <path d="M-22.094,-6.086C-22.094,-7.784 -21.471,-9.242 -20.227,-10.461C-18.987,-11.68 -17.497,-12.289 -15.758,-12.289C-14.039,-12.289 -12.565,-11.674 -11.336,-10.445C-10.102,-9.216 -9.484,-7.74 -9.484,-6.016C-9.484,-4.281 -10.104,-2.81 -11.344,-1.602C-12.589,-0.388 -14.091,0.219 -15.852,0.219C-17.409,0.219 -18.807,-0.32 -20.047,-1.398C-21.411,-2.591 -22.094,-4.154 -22.094,-6.086ZM-20.258,-6.062C-20.258,-4.729 -19.81,-3.633 -18.914,-2.773C-18.023,-1.914 -16.995,-1.484 -15.828,-1.484C-14.562,-1.484 -13.495,-1.922 -12.625,-2.797C-11.755,-3.682 -11.32,-4.76 -11.32,-6.031C-11.32,-7.318 -11.75,-8.396 -12.609,-9.266C-13.464,-10.141 -14.521,-10.578 -15.781,-10.578C-17.036,-10.578 -18.096,-10.141 -18.961,-9.266C-19.826,-8.401 -20.258,-7.333 -20.258,-6.062Z" style="fill-rule:nonzero;"/>
                <path d="M-5.375,-4.898L-5.375,0L-7.195,0L-7.195,-12.062L-5.133,-12.062C-4.122,-12.062 -3.359,-11.992 -2.844,-11.852C-2.323,-11.711 -1.865,-11.445 -1.469,-11.055C-0.776,-10.378 -0.43,-9.523 -0.43,-8.492C-0.43,-7.388 -0.799,-6.513 -1.539,-5.867C-2.279,-5.221 -3.276,-4.898 -4.531,-4.898L-5.375,-4.898ZM-5.375,-6.586L-4.695,-6.586C-3.023,-6.586 -2.188,-7.229 -2.188,-8.516C-2.188,-9.76 -3.049,-10.383 -4.773,-10.383L-5.375,-10.383L-5.375,-6.586Z" style="fill-rule:nonzero;"/>
            </g>
        </g>
    </g>
</svg>
